<svg width="74" height="32" viewBox="0 0 74 32" fill="none" xmlns="http://www.w3.org/2000/svg">
<rect width="74" height="32" fill="#1E1E1E"/>
<g clip-path="url(#clip0_0_1)">
<rect width="74" height="32" rx="2" fill="white"/>
<path fill-rule="evenodd" clip-rule="evenodd" d="M2 2L8 2V8H2V2ZM6 4H4V6H6V4Z" fill="black"/>
<path fill-rule="evenodd" clip-rule="evenodd" d="M24 2L30 2V8H24V2ZM28 4H26V6H28V4Z" fill="black"/>
<path fill-rule="evenodd" clip-rule="evenodd" d="M2 24L8 24V30H2V24ZM6 26H4V28H6V26Z" fill="black"/>
<rect x="6" y="10" width="4" height="4" fill="#E02525"/>
<rect x="18" y="6" width="4" height="4" fill="#E02525"/>
<rect x="18" y="14" width="4" height="4" fill="#E02525"/>
<rect x="22" y="26" width="4" height="4" fill="#E02525"/>
<rect x="14" y="2" width="4" height="4" fill="#1BCE1B"/>
<rect x="22" y="18" width="4" height="4" fill="#1BCE1B"/>
<rect x="14" y="22" width="4" height="4" fill="#1BCE1B"/>
<rect x="10" y="10" width="4" height="4" fill="#1BCE1B"/>
<rect x="10" y="6" width="4" height="4" fill="#5252F2"/>
<rect x="10" y="14" width="4" height="4" fill="#5252F2"/>
<rect x="14" y="26" width="4" height="4" fill="#5252F2"/>
<rect x="26" y="14" width="4" height="4" fill="#5252F2"/>
<rect x="14" y="14" width="4" height="4" fill="#F5F529"/>
<rect x="2" y="18" width="4" height="4" fill="#F5F529"/>
<rect x="18" y="2" width="4" height="4" fill="#F5F529"/>
<rect x="22" y="22" width="4" height="4" fill="black"/>
<rect x="10" y="26" width="4" height="4" fill="#F5F529"/>
<rect x="18" y="22" width="4" height="4" fill="#F5F529"/>
<rect x="2" y="14" width="4" height="4" fill="#FF42FF"/>
<rect x="10" y="18" width="4" height="4" fill="#FF42FF"/>
<rect x="26" y="22" width="4" height="4" fill="#FF42FF"/>
<rect x="22" y="10" width="4" height="4" fill="#FF42FF"/>
<rect x="6" y="18" width="4" height="4" fill="#01F0F0"/>
<rect x="2" y="10" width="4" height="4" fill="#01F0F0"/>
<rect x="18" y="26" width="4" height="4" fill="#01F0F0"/>
<rect x="26" y="10" width="4" height="4" fill="#01F0F0"/>
<path d="M37.4 23.768L36.96 23.944L35.832 22.32H35.088V27.248L35.984 27.48L35.72 28H32.888V27.552L33.64 26.96V22.32H32.928L31.8 23.944L31.36 23.768V21.568L31.936 21.712H36.824L37.4 21.568V23.768ZM40.2264 24.744C40.0344 24.744 39.8424 24.8293 39.6504 25V27.16L40.8664 27.48L40.6104 28H37.5784V27.552L38.2904 26.952V25.136L37.5784 24.688V24.24L39.2424 23.536L39.5464 24.424L40.2744 23.672C40.3864 23.6293 40.517 23.608 40.6664 23.608C40.9437 23.608 41.181 23.672 41.3784 23.8C41.581 23.928 41.7224 24.104 41.8024 24.328L41.0344 25.288H40.5304C40.525 25.096 40.4984 24.96 40.4504 24.88C40.4024 24.7947 40.3277 24.752 40.2264 24.752V24.744ZM46.6163 28H44.7923V27.304L43.8883 28.016C43.7816 28.0587 43.6483 28.08 43.4883 28.08C42.9763 28.08 42.6056 27.9547 42.3763 27.704C42.1523 27.4533 42.0403 27.152 42.0403 26.8C42.0403 26.592 42.1043 26.3893 42.2323 26.192C42.3603 25.9893 42.5443 25.8027 42.7843 25.632H44.7923V25.496C44.7923 25.2027 44.7123 24.9867 44.5523 24.848C44.3923 24.7093 44.1789 24.64 43.9123 24.64C43.5389 24.64 43.0509 24.7867 42.4483 25.08L42.2083 24.624L43.3203 23.728C43.5923 23.648 43.9096 23.608 44.2723 23.608C44.8696 23.608 45.3309 23.744 45.6562 24.016C45.9869 24.288 46.1523 24.6827 46.1523 25.2V27.2L46.8723 27.48L46.6163 28ZM43.8963 27.008C44.1683 27.008 44.4669 26.896 44.7923 26.672V26.16H43.5043C43.4616 26.224 43.4296 26.2853 43.4083 26.344C43.3923 26.3973 43.3843 26.4587 43.3843 26.528C43.3843 26.6613 43.4296 26.7733 43.5203 26.864C43.6163 26.9547 43.7416 27 43.8963 27V27.008ZM52.5686 28H50.7526V25.44C50.7526 25.1893 50.7126 25.0133 50.6326 24.912C50.5579 24.8053 50.4246 24.752 50.2326 24.752C49.9499 24.752 49.6699 24.8427 49.3926 25.024V27.24L50.1126 27.48L49.8486 28H47.3206V27.552L48.0326 26.952V25.136L47.3206 24.688V24.24L48.9846 23.536L49.2966 24.464L50.2886 23.672C50.4326 23.6293 50.5952 23.608 50.7766 23.608C51.1819 23.608 51.5046 23.72 51.7446 23.944C51.9899 24.1627 52.1126 24.4613 52.1126 24.84V27.24L52.8326 27.48L52.5686 28ZM55.5937 26.984C55.5937 26.8827 55.5244 26.7813 55.3857 26.68C55.247 26.5733 55.0337 26.44 54.7457 26.28C54.463 26.12 54.2364 25.984 54.0657 25.872C53.895 25.7547 53.7457 25.624 53.6177 25.48C53.495 25.3307 53.4337 25.1707 53.4337 25C53.4337 24.808 53.5244 24.6027 53.7057 24.384C53.8924 24.1653 54.119 23.9813 54.3857 23.832C54.6524 23.6827 54.8977 23.608 55.1217 23.608C55.3937 23.608 55.711 23.64 56.0737 23.704C56.4417 23.7627 56.7084 23.8293 56.8737 23.904V25.24H56.3697C56.2257 24.9733 56.0524 24.7653 55.8497 24.616C55.6524 24.4667 55.447 24.392 55.2337 24.392C55.127 24.392 55.0417 24.424 54.9777 24.488C54.9137 24.5467 54.8817 24.6187 54.8817 24.704C54.8817 24.816 54.951 24.9253 55.0897 25.032C55.2337 25.1387 55.4604 25.28 55.7697 25.456C56.1804 25.68 56.495 25.8827 56.7137 26.064C56.9377 26.2453 57.0497 26.4533 57.0497 26.688C57.0497 26.8853 56.9537 27.0933 56.7617 27.312C56.575 27.5253 56.343 27.7067 56.0657 27.856C55.7937 28.0053 55.543 28.08 55.3137 28.08C55.0204 28.08 54.671 28.0507 54.2657 27.992C53.8657 27.928 53.5804 27.8587 53.4097 27.784V26.4H53.9137C54.0737 26.6827 54.271 26.904 54.5057 27.064C54.7404 27.2187 54.9724 27.296 55.2017 27.296C55.319 27.296 55.4124 27.2667 55.4817 27.208C55.5564 27.144 55.5937 27.0693 55.5937 26.984ZM60.8144 20.936C61.0011 20.936 61.2144 20.96 61.4544 21.008C61.6944 21.056 61.8678 21.1093 61.9744 21.168V22.6H61.4704C61.3424 22.3653 61.1824 22.1813 60.9904 22.048C60.8038 21.9093 60.6144 21.84 60.4224 21.84C60.2251 21.84 60.0731 21.9227 59.9664 22.088C59.8651 22.2533 59.8144 22.4933 59.8144 22.808V23.928H61.1584V24.456H59.8144V27.16L61.0304 27.48L60.7744 28H57.7424V27.552L58.4544 26.952V24.456H57.5984V23.928H58.4544V23.312C58.4544 22.8907 58.5771 22.4987 58.8224 22.136C59.0678 21.768 59.3744 21.4773 59.7424 21.264C60.1158 21.0453 60.4731 20.936 60.8144 20.936ZM64.0408 23.608C64.6008 23.608 65.0328 23.8213 65.3368 24.248C65.6461 24.6747 65.7954 25.2667 65.7848 26.024H62.9048C62.9581 26.3493 63.0728 26.6107 63.2488 26.808C63.4248 27 63.6541 27.096 63.9368 27.096C64.3101 27.096 64.8461 26.9093 65.5448 26.536L65.7848 26.992L64.5688 27.96C64.2541 28.04 63.8888 28.08 63.4728 28.08C63.0834 28.08 62.7314 27.9893 62.4168 27.808C62.1074 27.6213 61.8648 27.368 61.6888 27.048C61.5181 26.728 61.4328 26.3733 61.4328 25.984C61.4328 25.5627 61.5688 25.1707 61.8408 24.808C62.1128 24.44 62.4514 24.1493 62.8568 23.936C63.2674 23.7173 63.6621 23.608 64.0408 23.608ZM63.6008 24.536C63.3661 24.536 63.1901 24.616 63.0728 24.776C62.9554 24.9307 62.8914 25.1707 62.8808 25.496H64.4088C64.3661 25.1653 64.2861 24.9227 64.1688 24.768C64.0568 24.6133 63.8648 24.536 63.5928 24.536H63.6008ZM69.2498 24.744C69.0578 24.744 68.8658 24.8293 68.6738 25V27.16L69.8898 27.48L69.6338 28H66.6018V27.552L67.3138 26.952V25.136L66.6018 24.688V24.24L68.2658 23.536L68.5698 24.424L69.2978 23.672C69.4098 23.6293 69.5405 23.608 69.6898 23.608C69.9671 23.608 70.2045 23.672 70.4018 23.8C70.6045 23.928 70.7458 24.104 70.8258 24.328L70.0578 25.288H69.5538C69.5485 25.096 69.5218 24.96 69.4738 24.88C69.4258 24.7947 69.3511 24.752 69.2498 24.752V24.744Z" fill="black"/>
<path d="M36.936 14.616L36.496 14.792L35.48 13.328H33.584V15.488H34.536L35.12 14.592H35.568V16.936L35.048 17.192L34.528 16.104H33.584V18.184L34.976 18.488L34.712 19.008H31.384V18.56L32.136 17.968V13.496L31.248 13.232L31.512 12.712H36.36L36.936 12.576V14.616ZM40.1142 19H37.5862V18.552L38.2982 17.952V16.096L37.5862 15.624V15.176L39.1542 14.536H39.6582V18.24L40.3782 18.48L40.1142 19ZM38.9702 12.128C39.1995 12.128 39.3862 12.2027 39.5302 12.352C39.6795 12.496 39.7542 12.6773 39.7542 12.896C39.7542 13.0507 39.7009 13.1947 39.5942 13.328C39.4875 13.4613 39.3542 13.568 39.1942 13.648C39.0342 13.728 38.8795 13.768 38.7302 13.768C38.5062 13.768 38.3195 13.696 38.1702 13.552C38.0262 13.4027 37.9542 13.2187 37.9542 13C37.9542 12.8453 38.0075 12.7013 38.1142 12.568C38.2209 12.4347 38.3515 12.328 38.5062 12.248C38.6662 12.168 38.8209 12.128 38.9702 12.128ZM43.2198 19H40.6918V18.552L41.4038 17.952V13.576L40.6918 13.104V12.656L42.2598 12.016H42.7638V18.24L43.4838 18.48L43.2198 19ZM46.6814 14.608C47.2414 14.608 47.6734 14.8213 47.9774 15.248C48.2867 15.6747 48.436 16.2667 48.4254 17.024H45.5454C45.5987 17.3493 45.7134 17.6107 45.8894 17.808C46.0654 18 46.2947 18.096 46.5774 18.096C46.9507 18.096 47.4867 17.9093 48.1854 17.536L48.4254 17.992L47.2094 18.96C46.8947 19.04 46.5294 19.08 46.1134 19.08C45.724 19.08 45.372 18.9893 45.0574 18.808C44.748 18.6213 44.5054 18.368 44.3294 18.048C44.1587 17.728 44.0734 17.3733 44.0734 16.984C44.0734 16.5627 44.2094 16.1707 44.4814 15.808C44.7534 15.44 45.092 15.1493 45.4974 14.936C45.908 14.7173 46.3027 14.608 46.6814 14.608ZM46.2414 15.536C46.0067 15.536 45.8307 15.616 45.7134 15.776C45.596 15.9307 45.532 16.1707 45.5214 16.496H47.0494C47.0067 16.1653 46.9267 15.9227 46.8094 15.768C46.6974 15.6133 46.5054 15.536 46.2334 15.536H46.2414Z" fill="black"/>
<path d="M37.456 4.816L35.408 9.744L34.032 10.152L31.76 4.64L30.944 4.232L31.2 3.712H34.184V4.16L33.312 4.68L35.032 8.888L36.72 4.808L35.496 4.232L35.752 3.712H38.336L38.328 4.16L37.456 4.816ZM41.2079 10H38.6799V9.552L39.3919 8.952V7.096L38.6799 6.624V6.176L40.2479 5.536H40.7519V9.24L41.4719 9.48L41.2079 10ZM40.0639 3.128C40.2933 3.128 40.4799 3.20267 40.6239 3.352C40.7733 3.496 40.8479 3.67733 40.8479 3.896C40.8479 4.05067 40.7946 4.19467 40.6879 4.328C40.5813 4.46133 40.4479 4.568 40.2879 4.648C40.1279 4.728 39.9733 4.768 39.8239 4.768C39.5999 4.768 39.4133 4.696 39.2639 4.552C39.1199 4.40267 39.0479 4.21867 39.0479 4C39.0479 3.84533 39.1013 3.70133 39.2079 3.568C39.3146 3.43467 39.4453 3.328 39.5999 3.248C39.7599 3.168 39.9146 3.128 40.0639 3.128ZM44.2656 8.984C44.2656 8.88267 44.1962 8.78133 44.0576 8.68C43.9189 8.57333 43.7056 8.44 43.4176 8.28C43.1349 8.12 42.9082 7.984 42.7376 7.872C42.5669 7.75467 42.4176 7.624 42.2896 7.48C42.1669 7.33067 42.1056 7.17067 42.1056 7C42.1056 6.808 42.1962 6.60267 42.3776 6.384C42.5642 6.16533 42.7909 5.98133 43.0576 5.832C43.3242 5.68267 43.5696 5.608 43.7936 5.608C44.0656 5.608 44.3829 5.64 44.7456 5.704C45.1136 5.76267 45.3802 5.82933 45.5456 5.904V7.24H45.0416C44.8976 6.97333 44.7242 6.76533 44.5216 6.616C44.3242 6.46667 44.1189 6.392 43.9056 6.392C43.7989 6.392 43.7136 6.424 43.6496 6.488C43.5856 6.54667 43.5536 6.61867 43.5536 6.704C43.5536 6.816 43.6229 6.92533 43.7616 7.032C43.9056 7.13867 44.1322 7.28 44.4416 7.456C44.8522 7.68 45.1669 7.88267 45.3856 8.064C45.6096 8.24533 45.7216 8.45333 45.7216 8.688C45.7216 8.88533 45.6256 9.09333 45.4336 9.312C45.2469 9.52533 45.0149 9.70667 44.7376 9.856C44.4656 10.0053 44.2149 10.08 43.9856 10.08C43.6922 10.08 43.3429 10.0507 42.9376 9.992C42.5376 9.928 42.2522 9.85867 42.0816 9.784V8.4H42.5856C42.7456 8.68267 42.9429 8.904 43.1776 9.064C43.4122 9.21867 43.6442 9.296 43.8736 9.296C43.9909 9.296 44.0842 9.26667 44.1536 9.208C44.2282 9.144 44.2656 9.06933 44.2656 8.984ZM51.4303 10H49.6063V9.312L48.7423 10.024C48.5983 10.0667 48.4356 10.088 48.2543 10.088C47.8436 10.088 47.5183 9.97867 47.2783 9.76C47.0383 9.536 46.9183 9.23467 46.9183 8.856V7.136L46.2063 6.728V6.28L47.7743 5.584H48.2783V8.256C48.2783 8.512 48.3156 8.69067 48.3903 8.792C48.465 8.89333 48.5983 8.944 48.7903 8.944C49.0676 8.944 49.3396 8.85333 49.6063 8.672V7.136L48.8943 6.728V6.28L50.4623 5.584H50.9663V9.24L51.6863 9.48L51.4303 10ZM56.7725 10H54.9485V9.304L54.0445 10.016C53.9378 10.0587 53.8045 10.08 53.6445 10.08C53.1325 10.08 52.7618 9.95467 52.5325 9.704C52.3085 9.45333 52.1965 9.152 52.1965 8.8C52.1965 8.592 52.2605 8.38933 52.3885 8.192C52.5165 7.98933 52.7005 7.80267 52.9405 7.632H54.9485V7.496C54.9485 7.20267 54.8685 6.98667 54.7085 6.848C54.5485 6.70933 54.3352 6.64 54.0685 6.64C53.6952 6.64 53.2072 6.78667 52.6045 7.08L52.3645 6.624L53.4765 5.728C53.7485 5.648 54.0658 5.608 54.4285 5.608C55.0258 5.608 55.4872 5.744 55.8125 6.016C56.1432 6.288 56.3085 6.68267 56.3085 7.2V9.2L57.0285 9.48L56.7725 10ZM54.0525 9.008C54.3245 9.008 54.6232 8.896 54.9485 8.672V8.16H53.6605C53.6178 8.224 53.5858 8.28533 53.5645 8.344C53.5485 8.39733 53.5405 8.45867 53.5405 8.528C53.5405 8.66133 53.5858 8.77333 53.6765 8.864C53.7725 8.95467 53.8978 9 54.0525 9V9.008ZM59.8448 10H57.3168V9.552L58.0288 8.952V4.576L57.3168 4.104V3.656L58.8848 3.016H59.3888V9.24L60.1088 9.48L59.8448 10Z" fill="black"/>
</g>
<defs>
<clipPath id="clip0_0_1">
<rect width="74" height="32" rx="2" fill="white"/>
</clipPath>
</defs>
</svg>
