<svg width="74" height="32" viewBox="0 0 74 32" fill="none" xmlns="http://www.w3.org/2000/svg">
<rect width="74" height="32"/>
<g clip-path="url(#clip0_0_1)">
<rect width="74" height="32" rx="2" fill="white"/>
<path fill-rule="evenodd" clip-rule="evenodd" d="M2 2L8 2V8H2V2ZM6 4H4V6H6V4Z" fill="black"/>
<path fill-rule="evenodd" clip-rule="evenodd" d="M24 2L30 2V8H24V2ZM28 4H26V6H28V4Z" fill="black"/>
<path fill-rule="evenodd" clip-rule="evenodd" d="M2 24L8 24V30H2V24ZM6 26H4V28H6V26Z" fill="black"/>
<rect x="6" y="10" width="4" height="4" fill="#E02525"/>
<rect x="18" y="6" width="4" height="4" fill="#E02525"/>
<rect x="18" y="14" width="4" height="4" fill="#E02525"/>
<rect x="22" y="26" width="4" height="4" fill="#E02525"/>
<rect x="14" y="2" width="4" height="4" fill="#1BCE1B"/>
<rect x="22" y="18" width="4" height="4" fill="#1BCE1B"/>
<rect x="14" y="22" width="4" height="4" fill="#1BCE1B"/>
<rect x="10" y="10" width="4" height="4" fill="#1BCE1B"/>
<rect x="10" y="6" width="4" height="4" fill="#5252F2"/>
<rect x="10" y="14" width="4" height="4" fill="#5252F2"/>
<rect x="14" y="26" width="4" height="4" fill="#5252F2"/>
<rect x="26" y="14" width="4" height="4" fill="#5252F2"/>
<rect x="14" y="14" width="4" height="4" fill="#F5F529"/>
<rect x="2" y="18" width="4" height="4" fill="#F5F529"/>
<rect x="18" y="2" width="4" height="4" fill="#F5F529"/>
<rect x="22" y="22" width="4" height="4" fill="black"/>
<rect x="10" y="26" width="4" height="4" fill="#F5F529"/>
<rect x="18" y="22" width="4" height="4" fill="#F5F529"/>
<rect x="2" y="14" width="4" height="4" fill="#FF42FF"/>
<rect x="10" y="18" width="4" height="4" fill="#FF42FF"/>
<rect x="26" y="22" width="4" height="4" fill="#FF42FF"/>
<rect x="22" y="10" width="4" height="4" fill="#FF42FF"/>
<rect x="6" y="18" width="4" height="4" fill="#01F0F0"/>
<rect x="2" y="10" width="4" height="4" fill="#01F0F0"/>
<rect x="18" y="26" width="4" height="4" fill="#01F0F0"/>
<rect x="26" y="10" width="4" height="4" fill="#01F0F0"/>
<path d="M38.4 23.768L37.96 23.944L36.832 22.32H36.088V27.248L36.984 27.48L36.72 28H33.888V27.552L34.64 26.96V22.32H33.928L32.8 23.944L32.36 23.768V21.568L32.936 21.712H37.824L38.4 21.568V23.768ZM41.2264 24.744C41.0344 24.744 40.8424 24.8293 40.6504 25V27.16L41.8664 27.48L41.6104 28H38.5784V27.552L39.2904 26.952V25.136L38.5784 24.688V24.24L40.2424 23.536L40.5464 24.424L41.2744 23.672C41.3864 23.6293 41.517 23.608 41.6664 23.608C41.9437 23.608 42.181 23.672 42.3784 23.8C42.581 23.928 42.7224 24.104 42.8024 24.328L42.0344 25.288H41.5304C41.525 25.096 41.4984 24.96 41.4504 24.88C41.4024 24.7947 41.3277 24.752 41.2264 24.752V24.744ZM47.6163 28H45.7923V27.304L44.8883 28.016C44.7816 28.0587 44.6483 28.08 44.4883 28.08C43.9763 28.08 43.6056 27.9547 43.3763 27.704C43.1523 27.4533 43.0403 27.152 43.0403 26.8C43.0403 26.592 43.1043 26.3893 43.2323 26.192C43.3603 25.9893 43.5443 25.8027 43.7843 25.632H45.7923V25.496C45.7923 25.2027 45.7123 24.9867 45.5523 24.848C45.3923 24.7093 45.1789 24.64 44.9123 24.64C44.5389 24.64 44.0509 24.7867 43.4483 25.08L43.2083 24.624L44.3203 23.728C44.5923 23.648 44.9096 23.608 45.2723 23.608C45.8696 23.608 46.3309 23.744 46.6562 24.016C46.9869 24.288 47.1523 24.6827 47.1523 25.2V27.2L47.8723 27.48L47.6163 28ZM44.8963 27.008C45.1683 27.008 45.4669 26.896 45.7923 26.672V26.16H44.5043C44.4616 26.224 44.4296 26.2853 44.4083 26.344C44.3923 26.3973 44.3843 26.4587 44.3843 26.528C44.3843 26.6613 44.4296 26.7733 44.5203 26.864C44.6163 26.9547 44.7416 27 44.8963 27V27.008ZM53.5686 28H51.7526V25.44C51.7526 25.1893 51.7126 25.0133 51.6326 24.912C51.5579 24.8053 51.4246 24.752 51.2326 24.752C50.9499 24.752 50.6699 24.8427 50.3926 25.024V27.24L51.1126 27.48L50.8486 28H48.3206V27.552L49.0326 26.952V25.136L48.3206 24.688V24.24L49.9846 23.536L50.2966 24.464L51.2886 23.672C51.4326 23.6293 51.5952 23.608 51.7766 23.608C52.1819 23.608 52.5046 23.72 52.7446 23.944C52.9899 24.1627 53.1126 24.4613 53.1126 24.84V27.24L53.8326 27.48L53.5686 28ZM56.5937 26.984C56.5937 26.8827 56.5244 26.7813 56.3857 26.68C56.247 26.5733 56.0337 26.44 55.7457 26.28C55.463 26.12 55.2364 25.984 55.0657 25.872C54.895 25.7547 54.7457 25.624 54.6177 25.48C54.495 25.3307 54.4337 25.1707 54.4337 25C54.4337 24.808 54.5244 24.6027 54.7057 24.384C54.8924 24.1653 55.119 23.9813 55.3857 23.832C55.6524 23.6827 55.8977 23.608 56.1217 23.608C56.3937 23.608 56.711 23.64 57.0737 23.704C57.4417 23.7627 57.7084 23.8293 57.8737 23.904V25.24H57.3697C57.2257 24.9733 57.0524 24.7653 56.8497 24.616C56.6524 24.4667 56.447 24.392 56.2337 24.392C56.127 24.392 56.0417 24.424 55.9777 24.488C55.9137 24.5467 55.8817 24.6187 55.8817 24.704C55.8817 24.816 55.951 24.9253 56.0897 25.032C56.2337 25.1387 56.4604 25.28 56.7697 25.456C57.1804 25.68 57.495 25.8827 57.7137 26.064C57.9377 26.2453 58.0497 26.4533 58.0497 26.688C58.0497 26.8853 57.9537 27.0933 57.7617 27.312C57.575 27.5253 57.343 27.7067 57.0657 27.856C56.7937 28.0053 56.543 28.08 56.3137 28.08C56.0204 28.08 55.671 28.0507 55.2657 27.992C54.8657 27.928 54.5804 27.8587 54.4097 27.784V26.4H54.9137C55.0737 26.6827 55.271 26.904 55.5057 27.064C55.7404 27.2187 55.9724 27.296 56.2017 27.296C56.319 27.296 56.4124 27.2667 56.4817 27.208C56.5564 27.144 56.5937 27.0693 56.5937 26.984ZM61.8144 20.936C62.0011 20.936 62.2144 20.96 62.4544 21.008C62.6944 21.056 62.8678 21.1093 62.9744 21.168V22.6H62.4704C62.3424 22.3653 62.1824 22.1813 61.9904 22.048C61.8038 21.9093 61.6144 21.84 61.4224 21.84C61.2251 21.84 61.0731 21.9227 60.9664 22.088C60.8651 22.2533 60.8144 22.4933 60.8144 22.808V23.928H62.1584V24.456H60.8144V27.16L62.0304 27.48L61.7744 28H58.7424V27.552L59.4544 26.952V24.456H58.5984V23.928H59.4544V23.312C59.4544 22.8907 59.5771 22.4987 59.8224 22.136C60.0678 21.768 60.3744 21.4773 60.7424 21.264C61.1158 21.0453 61.4731 20.936 61.8144 20.936ZM65.0408 23.608C65.6008 23.608 66.0328 23.8213 66.3368 24.248C66.6461 24.6747 66.7954 25.2667 66.7848 26.024H63.9048C63.9581 26.3493 64.0728 26.6107 64.2488 26.808C64.4248 27 64.6541 27.096 64.9368 27.096C65.3101 27.096 65.8461 26.9093 66.5448 26.536L66.7848 26.992L65.5688 27.96C65.2541 28.04 64.8888 28.08 64.4728 28.08C64.0834 28.08 63.7314 27.9893 63.4168 27.808C63.1074 27.6213 62.8648 27.368 62.6888 27.048C62.5181 26.728 62.4328 26.3733 62.4328 25.984C62.4328 25.5627 62.5688 25.1707 62.8408 24.808C63.1128 24.44 63.4514 24.1493 63.8568 23.936C64.2674 23.7173 64.6621 23.608 65.0408 23.608ZM64.6008 24.536C64.3661 24.536 64.1901 24.616 64.0728 24.776C63.9554 24.9307 63.8914 25.1707 63.8808 25.496H65.4088C65.3661 25.1653 65.2861 24.9227 65.1688 24.768C65.0568 24.6133 64.8648 24.536 64.5928 24.536H64.6008ZM70.2498 24.744C70.0578 24.744 69.8658 24.8293 69.6738 25V27.16L70.8898 27.48L70.6338 28H67.6018V27.552L68.3138 26.952V25.136L67.6018 24.688V24.24L69.2658 23.536L69.5698 24.424L70.2978 23.672C70.4098 23.6293 70.5405 23.608 70.6898 23.608C70.9671 23.608 71.2045 23.672 71.4018 23.8C71.6045 23.928 71.7458 24.104 71.8258 24.328L71.0578 25.288H70.5538C70.5485 25.096 70.5218 24.96 70.4738 24.88C70.4258 24.7947 70.3511 24.752 70.2498 24.752V24.744Z" fill="black"/>
<path d="M37.936 14.616L37.496 14.792L36.48 13.328H34.584V15.488H35.536L36.12 14.592H36.568V16.936L36.048 17.192L35.528 16.104H34.584V18.184L35.976 18.488L35.712 19.008H32.384V18.56L33.136 17.968V13.496L32.248 13.232L32.512 12.712H37.36L37.936 12.576V14.616ZM41.1142 19H38.5862V18.552L39.2982 17.952V16.096L38.5862 15.624V15.176L40.1542 14.536H40.6582V18.24L41.3782 18.48L41.1142 19ZM39.9702 12.128C40.1995 12.128 40.3862 12.2027 40.5302 12.352C40.6795 12.496 40.7542 12.6773 40.7542 12.896C40.7542 13.0507 40.7009 13.1947 40.5942 13.328C40.4875 13.4613 40.3542 13.568 40.1942 13.648C40.0342 13.728 39.8795 13.768 39.7302 13.768C39.5062 13.768 39.3195 13.696 39.1702 13.552C39.0262 13.4027 38.9542 13.2187 38.9542 13C38.9542 12.8453 39.0075 12.7013 39.1142 12.568C39.2209 12.4347 39.3515 12.328 39.5062 12.248C39.6662 12.168 39.8209 12.128 39.9702 12.128ZM44.2198 19H41.6918V18.552L42.4038 17.952V13.576L41.6918 13.104V12.656L43.2598 12.016H43.7638V18.24L44.4838 18.48L44.2198 19ZM47.6814 14.608C48.2414 14.608 48.6734 14.8213 48.9774 15.248C49.2867 15.6747 49.436 16.2667 49.4254 17.024H46.5454C46.5987 17.3493 46.7134 17.6107 46.8894 17.808C47.0654 18 47.2947 18.096 47.5774 18.096C47.9507 18.096 48.4867 17.9093 49.1854 17.536L49.4254 17.992L48.2094 18.96C47.8947 19.04 47.5294 19.08 47.1134 19.08C46.724 19.08 46.372 18.9893 46.0574 18.808C45.748 18.6213 45.5054 18.368 45.3294 18.048C45.1587 17.728 45.0734 17.3733 45.0734 16.984C45.0734 16.5627 45.2094 16.1707 45.4814 15.808C45.7534 15.44 46.092 15.1493 46.4974 14.936C46.908 14.7173 47.3027 14.608 47.6814 14.608ZM47.2414 15.536C47.0067 15.536 46.8307 15.616 46.7134 15.776C46.596 15.9307 46.532 16.1707 46.5214 16.496H48.0494C48.0067 16.1653 47.9267 15.9227 47.8094 15.768C47.6974 15.6133 47.5054 15.536 47.2334 15.536H47.2414Z" fill="black"/>
<path d="M38.456 4.816L36.408 9.744L35.032 10.152L32.76 4.64L31.944 4.232L32.2 3.712H35.184V4.16L34.312 4.68L36.032 8.888L37.72 4.808L36.496 4.232L36.752 3.712H39.336L39.328 4.16L38.456 4.816ZM42.2079 10H39.6799V9.552L40.3919 8.952V7.096L39.6799 6.624V6.176L41.2479 5.536H41.7519V9.24L42.4719 9.48L42.2079 10ZM41.0639 3.128C41.2933 3.128 41.4799 3.20267 41.6239 3.352C41.7733 3.496 41.8479 3.67733 41.8479 3.896C41.8479 4.05067 41.7946 4.19467 41.6879 4.328C41.5813 4.46133 41.4479 4.568 41.2879 4.648C41.1279 4.728 40.9733 4.768 40.8239 4.768C40.5999 4.768 40.4133 4.696 40.2639 4.552C40.1199 4.40267 40.0479 4.21867 40.0479 4C40.0479 3.84533 40.1013 3.70133 40.2079 3.568C40.3146 3.43467 40.4453 3.328 40.5999 3.248C40.7599 3.168 40.9146 3.128 41.0639 3.128ZM45.2656 8.984C45.2656 8.88267 45.1962 8.78133 45.0576 8.68C44.9189 8.57333 44.7056 8.44 44.4176 8.28C44.1349 8.12 43.9082 7.984 43.7376 7.872C43.5669 7.75467 43.4176 7.624 43.2896 7.48C43.1669 7.33067 43.1056 7.17067 43.1056 7C43.1056 6.808 43.1962 6.60267 43.3776 6.384C43.5642 6.16533 43.7909 5.98133 44.0576 5.832C44.3242 5.68267 44.5696 5.608 44.7936 5.608C45.0656 5.608 45.3829 5.64 45.7456 5.704C46.1136 5.76267 46.3802 5.82933 46.5456 5.904V7.24H46.0416C45.8976 6.97333 45.7242 6.76533 45.5216 6.616C45.3242 6.46667 45.1189 6.392 44.9056 6.392C44.7989 6.392 44.7136 6.424 44.6496 6.488C44.5856 6.54667 44.5536 6.61867 44.5536 6.704C44.5536 6.816 44.6229 6.92533 44.7616 7.032C44.9056 7.13867 45.1322 7.28 45.4416 7.456C45.8522 7.68 46.1669 7.88267 46.3856 8.064C46.6096 8.24533 46.7216 8.45333 46.7216 8.688C46.7216 8.88533 46.6256 9.09333 46.4336 9.312C46.2469 9.52533 46.0149 9.70667 45.7376 9.856C45.4656 10.0053 45.2149 10.08 44.9856 10.08C44.6922 10.08 44.3429 10.0507 43.9376 9.992C43.5376 9.928 43.2522 9.85867 43.0816 9.784V8.4H43.5856C43.7456 8.68267 43.9429 8.904 44.1776 9.064C44.4122 9.21867 44.6442 9.296 44.8736 9.296C44.9909 9.296 45.0842 9.26667 45.1536 9.208C45.2282 9.144 45.2656 9.06933 45.2656 8.984ZM52.4303 10H50.6063V9.312L49.7423 10.024C49.5983 10.0667 49.4356 10.088 49.2543 10.088C48.8436 10.088 48.5183 9.97867 48.2783 9.76C48.0383 9.536 47.9183 9.23467 47.9183 8.856V7.136L47.2063 6.728V6.28L48.7743 5.584H49.2783V8.256C49.2783 8.512 49.3156 8.69067 49.3903 8.792C49.465 8.89333 49.5983 8.944 49.7903 8.944C50.0676 8.944 50.3396 8.85333 50.6063 8.672V7.136L49.8943 6.728V6.28L51.4623 5.584H51.9663V9.24L52.6863 9.48L52.4303 10ZM57.7725 10H55.9485V9.304L55.0445 10.016C54.9378 10.0587 54.8045 10.08 54.6445 10.08C54.1325 10.08 53.7618 9.95467 53.5325 9.704C53.3085 9.45333 53.1965 9.152 53.1965 8.8C53.1965 8.592 53.2605 8.38933 53.3885 8.192C53.5165 7.98933 53.7005 7.80267 53.9405 7.632H55.9485V7.496C55.9485 7.20267 55.8685 6.98667 55.7085 6.848C55.5485 6.70933 55.3352 6.64 55.0685 6.64C54.6952 6.64 54.2072 6.78667 53.6045 7.08L53.3645 6.624L54.4765 5.728C54.7485 5.648 55.0658 5.608 55.4285 5.608C56.0258 5.608 56.4872 5.744 56.8125 6.016C57.1432 6.288 57.3085 6.68267 57.3085 7.2V9.2L58.0285 9.48L57.7725 10ZM55.0525 9.008C55.3245 9.008 55.6232 8.896 55.9485 8.672V8.16H54.6605C54.6178 8.224 54.5858 8.28533 54.5645 8.344C54.5485 8.39733 54.5405 8.45867 54.5405 8.528C54.5405 8.66133 54.5858 8.77333 54.6765 8.864C54.7725 8.95467 54.8978 9 55.0525 9V9.008ZM60.8448 10H58.3168V9.552L59.0288 8.952V4.576L58.3168 4.104V3.656L59.8848 3.016H60.3888V9.24L61.1088 9.48L60.8448 10Z" fill="black"/>
</g>
<defs>
<clipPath id="clip0_0_1">
<rect width="74" height="32" rx="2" fill="white"/>
</clipPath>
</defs>
</svg>
